<svg width="119" height="34" viewBox="0 0 119 34" fill="none" xmlns="http://www.w3.org/2000/svg">
<path d="M1.03125 16.6377V16.6138C1.03125 16.6138 1.03125 16.5958 1.03125 16.5898C1.03779 16.6117 1.04681 16.6328 1.05815 16.6526C1.05889 16.6477 1.05889 16.6426 1.05815 16.6377" fill="white"/>
<path d="M13.1541 26.0079C9.49628 26.0006 5.90533 26.9883 2.76562 28.865L2.82839 28.9517C2.91506 29.0592 3.00173 29.1668 3.09139 29.2685C3.3815 29.6162 3.69081 29.9474 4.01786 30.2607C4.1135 30.3563 4.20914 30.446 4.31673 30.5356C4.54386 30.7389 4.77399 30.9361 5.01308 31.1334C7.52039 29.7875 10.3219 29.0831 13.1676 29.0831C16.0133 29.0831 18.8148 29.7875 21.3221 31.1334C21.6658 30.8644 21.9915 30.5745 22.3083 30.2726L22.4667 30.1172C22.5743 30.0096 22.6789 29.8991 22.7835 29.7915C22.9389 29.6241 23.0883 29.4538 23.2318 29.2804C23.3454 29.1489 23.4559 29.0144 23.5606 28.8769C20.4171 26.9923 16.8193 26.0004 13.1541 26.0079Z" fill="#7C57A3"/>
<path d="M13.149 29.8557C10.5576 29.8561 8.00329 30.4706 5.69531 31.6489C5.99418 31.8641 6.33189 32.0673 6.66363 32.2466C6.81605 32.3363 6.96249 32.417 7.12388 32.4977C7.59169 32.7389 8.07375 32.9515 8.56739 33.1342L8.63912 33.1611C9.15302 33.3511 9.67924 33.5058 10.2141 33.6244C10.733 33.7446 11.2591 33.8315 11.7891 33.8844H11.8459C12.2763 33.9262 12.7096 33.9471 13.149 33.9471H13.5554C13.6899 33.9471 13.8214 33.9472 13.9499 33.9292C14.4447 33.8986 14.9375 33.8417 15.4263 33.7589L15.773 33.6901C16.331 33.5776 16.8811 33.4289 17.4197 33.2448L17.7335 33.1312C18.3916 32.885 19.0283 32.5851 19.6373 32.2347C19.969 32.0464 20.2888 31.8461 20.6026 31.6369C18.2948 30.4584 15.7403 29.8438 13.149 29.8438" fill="#8F6EAF"/>
<path d="M13.1477 23.6094C9.0311 23.6033 4.98978 24.7125 1.45312 26.8192C1.56072 27.0284 1.67428 27.2346 1.79084 27.4349C1.86854 27.5693 1.94625 27.7008 2.02993 27.8294C2.11361 27.9579 2.15545 28.0266 2.2212 28.1282L2.35569 28.3255C5.62152 26.3879 9.34881 25.3654 13.1462 25.3654C16.9435 25.3654 20.6708 26.3879 23.9366 28.3255C24.2675 27.8577 24.5671 27.3685 24.8332 26.861C24.8344 26.8491 24.8344 26.8371 24.8332 26.8252C21.2998 24.7178 17.2617 23.6066 13.1477 23.6094Z" fill="#6E479B"/>
<path d="M26.3 0V20.8069C26.3 21.2522 26.2761 21.7035 26.2342 22.1338C26.1784 22.6838 26.0885 23.2298 25.9653 23.7686C25.8407 24.3013 25.685 24.8262 25.499 25.3406V25.3616C25.4303 25.5528 25.3556 25.7381 25.2779 25.9234C22.6106 24.2609 19.6245 23.1757 16.5122 22.7375V16.9814C16.5122 16.0913 16.1586 15.2376 15.5292 14.6082C14.8998 13.9788 14.0461 13.6252 13.156 13.6252C12.2658 13.6252 11.4122 13.9788 10.7828 14.6082C10.1533 15.2376 9.79974 16.0913 9.79974 16.9814V22.7375C6.68805 23.1691 3.7017 24.2494 1.03407 25.9085C1.03458 25.8995 1.03458 25.8905 1.03407 25.8816C0.968318 25.7172 0.902568 25.5498 0.842795 25.3855C0.288723 23.9224 0.00321671 22.3714 0 20.8069V0H5.01792V5.39748H10.514V0H15.789V5.39748H21.2791V0H26.3Z" fill="#D3AF35"/>
<path d="M43.9481 15.3407H35.9714V1.3419C35.9634 1.09672 36.0187 0.853614 36.1317 0.635905C36.2447 0.418195 36.4118 0.233186 36.6169 0.0986255V0H33.0156V0.0986255C33.2211 0.234616 33.3897 0.419287 33.5065 0.6362C33.6233 0.853113 33.6846 1.09554 33.6851 1.3419V16.049C33.6846 16.2953 33.6233 16.5378 33.5065 16.7547C33.3897 16.9716 33.2211 17.1563 33.0156 17.2922V17.3909H44.8925L45.2391 14.7011H45.1286C44.9283 15.1135 44.5308 15.3197 43.96 15.3197" fill="white"/>
<path d="M50.6019 16.0021L47.3742 1.39362C47.3075 1.14783 47.3251 0.886771 47.4243 0.652181C47.5234 0.41759 47.6983 0.22301 47.9211 0.0995425V0.00390625H41.6599V0.0995425C41.8878 0.218173 42.0669 0.412838 42.1663 0.649763C42.2656 0.886687 42.2789 1.15092 42.2038 1.39661L39.8966 11.9017C39.7769 12.4322 39.4553 12.8953 39 13.1928V13.2914H42.6013V13.1928C42.3678 13.0819 42.1831 12.8892 42.0823 12.6512C41.9815 12.4132 41.9716 12.1465 42.0544 11.9017L42.4369 10.237H47.1799L48.2468 15.0905L48.6742 15.1503C48.7609 15.1503 48.8326 15.1712 48.9014 15.1802C49.0951 15.1472 49.2943 15.1754 49.4712 15.2609C49.6482 15.3465 49.794 15.4851 49.8884 15.6575C49.9828 15.8299 50.0211 16.0274 49.9979 16.2226C49.9747 16.4177 49.8912 16.6008 49.7591 16.7462C49.6085 16.9514 49.4745 17.1682 49.3586 17.3948H51.4776V17.2962C51.2536 17.1493 51.0614 16.9592 50.912 16.737C50.7626 16.5147 50.6592 16.2649 50.6079 16.0021M42.8553 8.27346L44.2451 2.08699H45.3628L46.7286 8.27346H42.8553Z" fill="white"/>
<path d="M53.366 1.36581L56.9524 14.6114C56.663 14.7124 56.383 14.8384 56.1155 14.988C55.7673 15.1797 55.4482 15.4202 55.1681 15.7023L51.1813 1.35684C51.1282 1.09257 51.018 0.843071 50.8585 0.625759C50.699 0.408447 50.494 0.228552 50.2578 0.0986255V0H53.8621V0.0986255C53.6387 0.2126 53.4649 0.404504 53.3735 0.638021C53.282 0.871537 53.2794 1.13047 53.366 1.36581Z" fill="white"/>
<path d="M63.7775 0V0.0986255C63.5445 0.235147 63.3425 0.418522 63.184 0.637154C63.0256 0.855787 62.9142 1.10492 62.857 1.3688L59.3035 14.2199C58.5505 14.2122 57.8013 14.3284 57.0859 14.5636L60.6723 1.36581C60.7567 1.12997 60.7526 0.871507 60.6608 0.638446C60.569 0.405385 60.3958 0.213567 60.1732 0.0986255V0.00298927L63.7775 0Z" fill="white"/>
<path d="M104.173 3.32934C103.349 2.16377 102.186 1.27917 100.843 0.794978C99.7185 0.349116 98.526 0.0974832 97.3169 0.0508074C96.752 0.0149438 96.3037 0 95.972 0H90.9062V0.0986255C91.1117 0.234616 91.2803 0.419287 91.3971 0.6362C91.5139 0.853113 91.5752 1.09554 91.5757 1.3419V16.049C91.5752 16.2953 91.5139 16.5378 91.3971 16.7547C91.2803 16.9716 91.1117 17.1563 90.9062 17.2922V17.3909H97.2153C98.4045 17.4186 99.5873 17.2082 100.694 16.7722C101.841 16.3339 102.866 15.6267 103.683 14.7101C104.974 13.2994 105.619 11.2861 105.619 8.67003C105.619 6.47837 105.139 4.69814 104.179 3.32934M100.174 14.6353C99.0961 15.1198 97.9246 15.3606 96.7431 15.3407H93.862V2.06216H96.0736C100.891 2.06216 103.301 4.26478 103.303 8.67003C103.303 11.6348 102.26 13.6272 100.174 14.6473" fill="white"/>
<path d="M118.112 16.0021L114.881 1.39362C114.814 1.14784 114.831 0.886579 114.931 0.651864C115.03 0.417149 115.205 0.222615 115.428 0.0995425V0.00390625H109.152V0.0995425C109.385 0.212026 109.57 0.405877 109.671 0.644701C109.771 0.883524 109.781 1.15089 109.699 1.39661L106.695 15.0875C106.994 15.0726 107.293 15.0606 107.592 15.0606C108.115 15.0606 108.542 15.0846 108.886 15.1174L109.457 12.5711H115.198L115.945 16.0021C116.022 16.2475 116.009 16.5123 115.908 16.7489C115.807 16.9855 115.625 17.1784 115.395 17.2932V17.3948H119V17.2932C118.554 16.9907 118.243 16.5283 118.13 16.0021M109.887 10.509L111.749 2.08699H112.867L114.735 10.509H109.887Z" fill="white"/>
<path d="M71.8272 1.39362C71.7583 1.14786 71.7749 0.885998 71.8743 0.650902C71.9737 0.415805 72.1499 0.221409 72.3742 0.0995425V0.00390625H66.098V0.0995425C66.3314 0.21145 66.516 0.404591 66.6172 0.642798C66.7184 0.881005 66.7294 1.14794 66.6479 1.39362L63.5547 15.3894C63.7489 15.5119 63.9402 15.6404 64.1285 15.7809C64.6859 15.4605 65.2595 15.1692 65.847 14.9082L66.373 12.5711H72.1141L72.3652 13.7158C73.1883 13.7489 73.9899 13.9884 74.6963 14.4121L71.8272 1.39362ZM66.8302 10.509L68.6951 2.08699H69.8129L71.6748 10.509H66.8302Z" fill="white"/>
<path d="M85.2896 0.0986255C85.506 0.222903 85.6833 0.405159 85.8016 0.624836C85.9199 0.844513 85.9744 1.09287 85.9591 1.3419V11.1805C85.74 10.5863 85.425 10.032 85.0266 9.53972C84.5724 8.942 83.9687 8.23768 83.2155 7.42676C82.4624 6.61584 81.9444 6.03704 81.6614 5.69036C80.4182 4.16616 79.7965 2.72464 79.7965 1.36581V1.3419C79.7883 1.09635 79.8437 0.852843 79.9574 0.63501C80.071 0.417176 80.239 0.232407 80.4451 0.0986255V0H76.8438V0.0986255C77.0492 0.234616 77.2178 0.419287 77.3346 0.6362C77.4514 0.853113 77.5127 1.09554 77.5132 1.3419V16.049C77.5127 16.2953 77.4514 16.5378 77.3346 16.7547C77.2178 16.9716 77.0492 17.1563 76.8438 17.2922V17.3909H80.4451V17.2922C80.2395 17.1581 80.0721 16.9732 79.959 16.7554C79.8459 16.5376 79.791 16.2942 79.7995 16.049V6.13567C80.1308 6.94256 80.5922 7.68967 81.1653 8.34726C81.9762 9.29167 82.6736 10.0787 83.2574 10.7083C83.9866 11.4691 84.6117 12.3233 85.1163 13.2486C85.6412 14.0839 85.9323 15.0449 85.9591 16.031V16.055C85.9704 16.3034 85.9141 16.5502 85.7962 16.7691C85.6783 16.988 85.5032 17.1709 85.2896 17.2982V17.3968H88.9149V17.2982C88.7094 17.1622 88.5408 16.9776 88.424 16.7607C88.3072 16.5437 88.2458 16.3013 88.2454 16.055V1.3419C88.2458 1.09554 88.3072 0.853113 88.424 0.6362C88.5408 0.419287 88.7094 0.234616 88.9149 0.0986255V0H85.2896V0.0986255Z" fill="white"/>
<path d="M43.1324 32.041C42.172 32.041 41.6928 31.4293 41.6948 30.206C41.6898 29.6951 41.7821 29.188 41.9668 28.7117C40.7255 30.9033 39.5301 31.9992 38.3804 31.9992C38.3148 32.0036 38.2489 32.0036 38.1832 31.9992C38.1174 31.9992 38.0427 31.9783 37.959 31.9603C37.1322 31.7312 36.7188 31.1036 36.7188 30.0775C36.7458 29.1994 36.9576 28.3369 37.3404 27.5461C37.5339 27.1085 37.7525 26.6825 37.9949 26.27C38.2314 25.8713 38.5014 25.4933 38.8018 25.1403C39.8459 23.885 41.0413 23.2574 42.3882 23.2574C42.9721 23.2532 43.5463 23.4071 44.0499 23.7027C44.3308 23.1568 44.6655 22.3917 45.0541 21.4075C45.4426 20.4232 45.8939 19.2277 46.4079 17.8211C46.5182 17.4178 46.7314 17.0502 47.0266 16.7541C47.3257 16.5775 47.6727 16.4992 48.0188 16.53L48.5388 16.6047L48.8377 16.6436C48.9119 16.656 48.9876 16.656 49.0618 16.6436C48.7107 17.123 48.4036 17.6331 48.1443 18.1678C47.696 19.0046 47.1172 20.1741 46.4079 21.6764C45.6986 23.1787 45.082 24.5346 44.5579 25.744C44.0559 26.9394 43.6614 27.9436 43.3625 28.7715C43.1368 29.3498 43.0105 29.9621 42.9889 30.5826C42.9889 31.1444 43.1802 31.4254 43.5597 31.4254C44.0558 31.4254 44.5848 30.9701 45.1467 30.0596L45.2483 29.937L45.6428 30.1343L45.5442 30.2598C44.7811 31.4473 43.9772 32.041 43.1324 32.041ZM38.6494 31.2968C39.1953 31.2968 39.8568 30.7589 40.6339 29.683C41.8318 27.8769 42.9293 26.0062 43.9214 24.0793C43.8281 23.9829 43.7161 23.9066 43.5922 23.8552C43.4683 23.8038 43.3352 23.7783 43.2011 23.7804C42.5217 23.7804 41.7247 24.2357 40.8102 25.1462C39.9456 25.9965 39.2177 26.9754 38.6524 28.0482C38.2408 28.7326 38.0028 29.5072 37.959 30.3046C37.974 30.9651 38.1981 31.2968 38.6434 31.2968H38.6494Z" fill="#D3AF35"/>
<path d="M46.982 32.042C46.8842 32.0561 46.7846 32.0471 46.6909 32.0159C46.5972 31.9846 46.5121 31.9319 46.4425 31.862C46.3728 31.792 46.3204 31.7067 46.2896 31.6129C46.2587 31.5191 46.2502 31.4194 46.2647 31.3217C46.2935 30.902 46.3946 30.4905 46.5636 30.1053C46.9939 29.0473 47.3994 28.0721 47.7799 27.1794C48.1605 26.2868 48.5161 25.4769 48.8469 24.7497C48.8959 24.6664 48.9217 24.5714 48.9216 24.4747C48.9021 24.1971 48.7882 23.9345 48.5988 23.7306L49.9616 23.7067C50.4249 23.7067 50.658 23.8232 50.658 24.0533C50.6562 24.1268 50.6389 24.1992 50.6072 24.2655C50.5743 24.3402 50.5325 24.4419 50.4847 24.5644L48.2013 29.8453C47.997 30.2818 47.8793 30.7537 47.8547 31.235C47.8347 31.389 47.8589 31.5456 47.9245 31.6863C47.9902 31.8271 48.0945 31.9463 48.2252 32.03L46.982 32.042ZM50.3561 22.4425C49.7943 22.4425 49.5134 22.1705 49.5134 21.6236C49.5134 21.0767 49.7764 20.8047 50.3083 20.8047C50.8403 20.8047 51.1511 21.0796 51.1511 21.6236C51.1511 22.1675 50.8851 22.4425 50.3561 22.4425Z" fill="#D3AF35"/>
<path d="M61.6555 33.9017C60.0217 33.9017 58.7824 33.4036 57.9376 32.4074C57.2084 31.5646 56.8438 30.4159 56.8438 28.9615C56.8501 27.9472 57.0093 26.9397 57.316 25.9728C57.6524 24.9028 58.1107 23.8749 58.6818 22.9095C57.7241 22.5898 56.862 22.0349 56.1743 21.2956C55.503 20.6132 55.1217 19.6975 55.1104 18.7403C55.0964 18.238 55.2266 17.7422 55.4856 17.3116C55.7446 16.881 56.1216 16.5336 56.5718 16.3106C57.411 15.865 58.3506 15.6427 59.3005 15.665C61.0515 15.64 62.749 16.2687 64.0613 17.4283C66.528 15.8882 68.9836 15.1191 71.4283 15.1211C73.6798 15.1211 74.8045 15.7188 74.8025 16.9143C74.8025 18.0739 73.885 19.3221 72.05 20.659C69.4718 22.5459 66.2391 23.4893 62.3518 23.4893C62.0859 23.4893 61.8259 23.4893 61.5688 23.4624C61.3118 23.4355 61.0697 23.4205 60.8396 23.3877C59.4648 25.5793 58.7784 27.6136 58.7804 29.4905C58.7378 30.4034 58.9779 31.3072 59.4678 32.0786C60.0655 32.9393 60.9671 33.3697 62.1725 33.3697C64.3642 33.3697 66.5379 32.0746 68.6937 29.4845C69.7876 28.1635 70.3335 27.0059 70.3315 26.0117C70.3315 25.1031 69.8603 24.6489 68.9179 24.6489C67.8778 24.6489 66.5718 25.2187 64.9998 26.3584C63.7942 27.1964 62.752 28.2477 61.9245 29.4606C61.9094 29.4948 61.8853 29.5243 61.8548 29.5459C61.8243 29.5674 61.7884 29.5803 61.7511 29.5831C61.6346 29.5831 61.5778 29.5024 61.5778 29.335C61.5778 29.2693 61.5778 29.2275 61.6017 29.2125C62.1118 28.0709 63.095 26.9461 64.5515 25.8383C66.0398 24.7146 67.3797 24.1528 68.5712 24.1528C68.9098 24.1308 69.249 24.1864 69.5628 24.3154C69.8767 24.4443 70.157 24.6432 70.3823 24.8969C70.7679 25.3922 70.9696 26.0059 70.9531 26.6333C70.9477 27.2265 70.8385 27.8142 70.6304 28.3697C70.3872 29.0124 70.0343 29.6081 69.5873 30.13C68.6472 31.3228 67.4306 32.2686 66.0428 32.8855C64.6708 33.5369 63.1741 33.8835 61.6555 33.9017ZM59.0763 22.2699C60.2338 20.5 61.7361 18.9814 63.4935 17.8049C62.0709 16.6812 60.5766 16.1193 59.0106 16.1193C58.2985 16.0996 57.5975 16.2989 57.0022 16.6901C56.6796 16.9129 56.4192 17.2142 56.2456 17.5656C56.072 17.9171 55.9909 18.307 56.01 18.6985C56.004 20.3183 57.0261 21.5088 59.0763 22.2699ZM62.3997 22.8676C63.2563 22.8666 64.1112 22.7916 64.9549 22.6435C67.3794 22.1718 69.6678 21.164 71.6525 19.6937C73.0571 18.6835 73.7595 17.6664 73.7595 16.6423C73.7595 15.9629 73.1976 15.6242 72.0739 15.6262C69.8922 15.6262 67.577 16.6094 65.1283 18.576C65.2777 18.7911 65.4182 19.0063 65.5497 19.2215C65.6842 19.4367 65.8067 19.6608 65.9233 19.891C65.989 20.0065 65.9561 20.0812 65.8246 20.1151H65.744C65.6885 20.1203 65.6327 20.1088 65.5837 20.0822C65.5348 20.0556 65.4948 20.015 65.469 19.9657C65.3883 19.8491 65.2807 19.7057 65.1492 19.5323C65.0177 19.359 64.8503 19.1647 64.677 18.9346C63.3655 20.0606 62.2061 21.3526 61.2281 22.778C61.6164 22.8318 62.0077 22.8608 62.3997 22.8647V22.8676Z" fill="#D3AF35"/>
<path d="M78.3791 32.0778C78.0496 32.0916 77.7277 31.9757 77.4825 31.755C77.1508 31.4741 76.9864 31.0048 76.9864 30.3414C76.9962 29.8465 77.0716 29.355 77.2106 28.8799C76.7254 29.7205 76.1337 30.495 75.4503 31.1842C74.8187 31.764 74.2558 32.0539 73.7617 32.0539C73.5569 32.0572 73.355 32.0061 73.1765 31.9058C72.9979 31.8055 72.8492 31.6596 72.7456 31.483C72.456 31.0339 72.3168 30.5043 72.3481 29.9708C72.3481 28.3988 73.0514 26.7779 74.458 25.1083C74.6934 24.8243 74.9589 24.5667 75.25 24.3402C75.5544 24.1056 75.8783 23.8976 76.2183 23.7186C76.8518 23.3763 77.5577 23.1899 78.2775 23.1746C78.6384 23.1576 78.9985 23.2199 79.3327 23.3573C79.6668 23.4947 79.9667 23.7037 80.2112 23.9696C80.266 24.0196 80.3097 24.0806 80.3396 24.1485C80.3694 24.2165 80.3847 24.2899 80.3845 24.3641C80.3845 24.645 80.2351 24.7526 79.9392 24.6869C79.888 24.4208 79.7412 24.1827 79.5264 24.0176C79.3117 23.8524 79.0439 23.7715 78.7736 23.7903C78.0783 23.7903 77.2594 24.2784 76.317 25.2547C75.9842 25.6193 75.6704 25.9959 75.3755 26.3844C75.0736 26.778 74.7923 27.187 74.5328 27.6098C73.8215 28.8052 73.4658 29.7725 73.4658 30.5117C73.4658 31.0766 73.681 31.3575 74.1084 31.3575C74.5895 31.3575 75.1424 30.9929 75.773 30.2637C76.1665 29.806 76.5223 29.3172 76.837 28.8022C77.2016 28.2224 77.5822 27.553 77.9787 26.7939C78.1144 26.5291 78.264 26.2717 78.427 26.0228C78.5585 25.8255 78.666 25.6761 78.7467 25.5775C78.8677 25.4505 79.0148 25.3514 79.1779 25.2869C79.3409 25.2223 79.5161 25.194 79.6911 25.2039L80.1873 25.2786C80.3643 25.3279 80.5501 25.3371 80.7312 25.3055C80.5304 25.522 80.3522 25.7583 80.1992 26.0108C80 26.3336 79.7639 26.751 79.4909 27.2631C79.21 27.811 78.9788 28.3091 78.7975 28.7574C78.6347 29.1426 78.5106 29.5431 78.427 29.9528C78.3938 30.1038 78.3688 30.2564 78.3522 30.4101C78.3352 30.5379 78.3262 30.6667 78.3253 30.7956C78.3253 31.226 78.4419 31.4412 78.675 31.4412C79.0038 31.4412 79.458 31.0766 80.0378 30.3473L80.1365 30.2248L80.4831 30.449L80.3845 30.5954C79.7071 31.5836 79.0386 32.0778 78.3791 32.0778Z" fill="#D3AF35"/>
<path d="M83.3137 32.1392C82.9604 32.161 82.6067 32.1057 82.2769 31.9772C81.9472 31.8487 81.6493 31.6501 81.4039 31.395C81.0411 30.9831 80.8469 30.4495 80.86 29.9007C80.86 29.0579 81.124 28.6365 81.652 28.6365C81.8557 28.6383 82.0512 28.7173 82.1989 28.8577C82.2767 28.9311 82.3387 29.0196 82.3814 29.1177C82.424 29.2158 82.4463 29.3215 82.447 29.4285C82.4528 29.5443 82.4179 29.6585 82.3483 29.7513C82.1417 29.9941 82.0274 30.3021 82.0256 30.621C82.0208 30.7626 82.0448 30.9037 82.0962 31.0357C82.1475 31.1677 82.2252 31.2879 82.3244 31.3891C82.4317 31.4959 82.5596 31.5797 82.7005 31.6352C82.8413 31.6907 82.992 31.7168 83.1433 31.7118C83.4892 31.7114 83.8237 31.5886 84.0877 31.3651C84.2803 31.1799 84.4308 30.9554 84.5288 30.7068C84.6268 30.4582 84.67 30.1914 84.6556 29.9246C84.6368 29.3047 84.4935 28.6949 84.2342 28.1314C84.1206 27.9641 83.9831 27.7519 83.8247 27.4859C83.6663 27.2199 83.49 26.9061 83.2928 26.5445C83.1818 26.3595 83.102 26.1576 83.0566 25.9467C83.0161 25.7501 82.9951 25.5498 82.9939 25.349C82.9827 25.0309 83.0466 24.7146 83.1806 24.4259C83.3146 24.1372 83.5148 23.8841 83.765 23.6873C84.3453 23.2397 85.0649 23.0111 85.7972 23.0418C86.0265 23.0409 86.255 23.0659 86.4786 23.1165C86.6941 23.1663 86.8973 23.2587 87.0764 23.3885C87.2499 23.502 87.3928 23.6566 87.4924 23.8385C87.592 24.0204 87.6451 24.2241 87.6472 24.4315C87.6485 24.6022 87.6139 24.7712 87.5456 24.9276C87.4838 25.1301 87.354 25.3049 87.178 25.4226C87.0021 25.5402 86.7909 25.5934 86.5803 25.5732C86.0333 25.5732 85.7614 25.2922 85.7614 24.7274C85.7571 24.5833 85.7826 24.4398 85.8361 24.306C85.8839 24.1416 86.0662 23.9772 86.38 23.8099C86.3149 23.7006 86.2196 23.6123 86.1057 23.5556C85.9918 23.4989 85.8639 23.4762 85.7375 23.4901C85.626 23.4804 85.5136 23.4928 85.4069 23.5266C85.3002 23.5605 85.2013 23.6151 85.1158 23.6873C84.9241 23.8478 84.7709 24.0493 84.6675 24.2769C84.564 24.5045 84.513 24.7524 84.5181 25.0023C84.5288 25.4179 84.6308 25.8261 84.817 26.1978C84.8498 26.2635 85.1696 26.7955 85.7823 27.7608C86.1345 28.2491 86.3492 28.823 86.4039 29.4225C86.3945 29.792 86.3001 30.1542 86.128 30.4813C85.9559 30.8083 85.7108 31.0913 85.4117 31.3084C84.8357 31.8296 84.0904 32.1248 83.3137 32.1392Z" fill="#D3AF35"/>
<path d="M89.6451 32.0393C88.5692 32.0393 88.0312 31.4515 88.0312 30.276C88.0321 30.0356 88.0531 29.7957 88.094 29.5587C88.1372 29.304 88.2074 29.0545 88.3032 28.8146C89.1819 26.4994 89.926 24.6145 90.5357 23.1601H88.9248L89.2237 22.6131H90.7629L91.3606 20.8767C91.5758 20.279 91.7581 19.9025 91.9075 19.7859C92.1562 19.6762 92.4291 19.6329 92.6995 19.6604L93.7664 19.6873C93.4398 19.9608 93.1845 20.3095 93.0223 20.7034L92.2034 22.6131H94.0892L93.7903 23.1601H91.9822C91.8657 23.4231 91.7521 23.6891 91.6475 23.9521C91.5429 24.2151 91.4174 24.49 91.2859 24.7709C90.9392 25.533 90.6403 26.2503 90.3893 26.9287C90.0904 27.7058 89.8543 28.3752 89.681 28.9371C89.5399 29.3731 89.4398 29.8214 89.3821 30.276C89.3164 31.0889 89.5315 31.4924 90.0277 31.4924C90.5238 31.4924 91.0528 30.9963 91.7132 29.9981L92.0121 30.3447C91.2092 31.4764 90.4202 32.0413 89.6451 32.0393Z" fill="#D3AF35"/>
<path d="M95.1914 32.1418C94.5786 32.1538 93.9842 31.9315 93.5297 31.5201C93.289 31.3 93.1063 31.0238 92.9978 30.7162C92.8849 30.3761 92.8304 30.0195 92.8364 29.6612C92.8364 28.139 93.465 26.6258 94.7222 25.1215C95.7802 23.8483 96.876 23.2117 98.0097 23.2117C98.3559 23.2006 98.6957 23.3058 98.975 23.5106C99.1103 23.6168 99.2189 23.7532 99.2921 23.9089C99.3653 24.0646 99.401 24.2352 99.3964 24.4072C99.3964 25.3157 98.7927 26.2243 97.5853 27.1328C96.6749 27.7256 95.6398 28.1 94.5608 28.2267C94.3268 28.7953 94.2089 29.405 94.2141 30.0199C94.2141 31.0958 94.6126 31.6337 95.4096 31.6337C96.4536 31.6337 97.4289 30.9553 98.3355 29.5985L98.4371 29.449L98.8585 29.6224L98.7838 29.7718C98.4456 30.5119 97.9034 31.1402 97.2207 31.5829C96.609 31.9534 95.9065 32.1469 95.1914 32.1418ZM94.7372 27.8023C95.1381 27.7751 95.5319 27.6822 95.9027 27.5273C96.1837 27.4138 96.4526 27.2882 96.7097 27.1567C96.9525 27.0326 97.181 26.8823 97.3911 26.7084C98.2996 25.9493 98.7539 25.1474 98.7539 24.3026C98.7539 23.941 98.6224 23.7587 98.3564 23.7587C97.8941 23.7587 97.1918 24.3285 96.2494 25.4682C95.6719 26.1961 95.1655 26.9777 94.7372 27.8023Z" fill="#D3AF35"/>
<path d="M100.18 32.0426C100.082 32.0566 99.9822 32.0476 99.8884 32.0164C99.7947 31.9851 99.7095 31.9325 99.6396 31.8626C99.5697 31.7927 99.517 31.7075 99.4858 31.6137C99.4545 31.5199 99.4455 31.4202 99.4595 31.3224C99.4883 30.9027 99.5894 30.4912 99.7584 30.106L104.57 17.8048C104.601 17.7611 104.619 17.7091 104.621 17.6553V17.5328C104.609 17.2499 104.504 16.979 104.322 16.7617H105.664C106.124 16.7617 106.357 16.8723 106.357 17.0845C106.336 17.2656 106.285 17.4422 106.208 17.6075L101.396 29.8609C101.2 30.3073 101.09 30.7871 101.073 31.2745C101.055 31.4225 101.077 31.5727 101.139 31.7087C101.2 31.8447 101.297 31.9612 101.42 32.0456L100.18 32.0426Z" fill="#D3AF35"/>
<path d="M104.524 32.0426C104.426 32.0566 104.326 32.0476 104.232 32.0164C104.138 31.9851 104.053 31.9325 103.983 31.8626C103.913 31.7927 103.861 31.7075 103.83 31.6137C103.798 31.5199 103.789 31.4202 103.803 31.3224C103.831 30.9025 103.932 30.4908 104.102 30.106L108.914 17.8048C108.944 17.7609 108.961 17.7088 108.962 17.6553V17.5328C108.948 17.2502 108.843 16.9796 108.663 16.7617H110.002C110.465 16.7617 110.695 16.8723 110.695 17.0845C110.675 17.266 110.624 17.4427 110.546 17.6075L105.734 29.8609C105.538 30.3074 105.43 30.7872 105.414 31.2745C105.395 31.4225 105.417 31.573 105.478 31.7091C105.54 31.8452 105.637 31.9617 105.761 32.0456L104.524 32.0426Z" fill="#D3AF35"/>
<path d="M110.077 32.0398C108.869 32.0398 108.266 31.3036 108.266 29.8312C108.281 29.0348 108.458 28.2498 108.786 27.5239C109.255 26.3823 109.975 25.3609 110.893 24.5353C111.787 23.7383 112.631 23.3398 113.424 23.3398C114.647 23.3398 115.259 24.0591 115.259 25.4976C115.243 26.3119 115.058 27.1138 114.715 27.8527C114.27 28.8588 113.638 29.7714 112.853 30.5425C111.847 31.5426 110.922 32.0418 110.077 32.0398ZM110.471 31.4928C110.917 31.4691 111.343 31.3037 111.688 31.0206C112.236 30.6222 112.855 29.7963 113.547 28.5431C114.308 27.1862 114.688 26.0904 114.688 25.2556C114.688 24.5104 114.374 24.1388 113.747 24.1408C113.251 24.1408 112.689 24.4546 112.061 25.0822C111.405 25.7597 110.876 26.5492 110.498 27.4134C109.918 28.6546 109.628 29.6508 109.628 30.402C109.628 31.1531 109.909 31.5167 110.471 31.4928Z" fill="#D3AF35"/>
</svg>
